<?xml version="1.0" encoding="iso-8859-1"?>
<!-- Generator: Adobe Illustrator 17.1.0, SVG Export Plug-In . SVG Version: 6.00 Build 0)  -->
<!DOCTYPE svg PUBLIC "-//W3C//DTD SVG 1.1//EN" "http://www.w3.org/Graphics/SVG/1.1/DTD/svg11.dtd">
<svg version="1.1" id="Capa_1" xmlns="http://www.w3.org/2000/svg" xmlns:xlink="http://www.w3.org/1999/xlink" x="0px" y="0px"
	 viewBox="0 0 216.882 216.882" style="enable-background:new 0 0 216.882 216.882;" xml:space="preserve">
<path style="fill:#fff;" d="M108.441,216.882c-0.04,0-0.08-0.001-0.12-0.004c-0.499-0.029-12.354-0.775-23.716-4.401
	c-12.71-4.057-28.856-10.305-33.595-17.037c-0.638-0.907-1.696-2.798-3.592-8.729H20.878c-7.925,0-14.373-6.447-14.373-14.372V95.79
	c0-3.655,2.974-6.63,6.629-6.63h0.714V74.606c-2.368-0.828-4.071-3.085-4.071-5.731c0-3.348,2.723-6.071,6.071-6.071
	s6.071,2.724,6.071,6.071c0,2.646-1.703,4.903-4.071,5.732V89.16h0.714c3.655,0,6.629,2.975,6.629,6.63v71.918
	c0,2.727,2.218,4.944,4.945,4.944h13.301c-3.072-11.826-5.971-24.8-6.979-29.386c-0.009-0.035-0.017-0.071-0.024-0.107
	c-0.176-0.803-0.291-1.33-0.333-1.526l-5.637-18.357c-0.183-0.642-4.163-14.961-2.958-34.474
	c1.028-16.662,5.815-22.517,7.774-24.237c0.702-3.189,3.603-16.057,6.378-23.955c2.402-6.836,10.528-24.072,22.099-32.067
	c0.069-0.055,0.141-0.104,0.217-0.149c1.665-1.129,3.4-2.066,5.199-2.753C82.518,0.545,107.353,0.021,108.403,0
	c1.127,0.021,25.961,0.545,39.305,5.64c1.798,0.687,3.531,1.622,5.195,2.751c0.078,0.046,0.152,0.098,0.224,0.153
	c11.569,7.997,19.693,25.229,22.095,32.065c2.776,7.898,5.677,20.766,6.379,23.955c1.959,1.72,6.746,7.574,7.774,24.237
	c1.204,19.513-2.775,33.832-2.946,34.432l-5.649,18.399c-0.042,0.196-0.157,0.725-0.333,1.526c-0.007,0.036-0.015,0.072-0.023,0.107
	c-1.01,4.589-3.911,17.576-6.98,29.386h13.301c2.727,0,4.945-2.218,4.945-4.944V95.79c0-3.655,2.974-6.63,6.629-6.63h0.715V74.607
	c-2.368-0.829-4.071-3.086-4.071-5.732c0-3.348,2.724-6.071,6.071-6.071s6.07,2.724,6.07,6.071c0,2.646-1.702,4.903-4.07,5.731
	V89.16h0.714c3.655,0,6.629,2.975,6.629,6.63v76.548c0,7.925-6.447,14.372-14.372,14.372h-26.542
	c-1.899,5.94-2.954,7.824-3.591,8.729c-4.738,6.732-20.884,12.981-33.594,17.037c-11.363,3.626-23.217,4.372-23.716,4.401
	C108.521,216.881,108.481,216.882,108.441,216.882z M51.625,186.71c1.431,4.309,2.266,5.871,2.657,6.427
	c3.198,4.544,14.398,10.06,31.539,15.529c10.28,3.281,21.348,4.123,22.62,4.212c1.272-0.089,12.339-0.931,22.619-4.212
	c17.141-5.47,28.341-10.985,31.539-15.529c0.391-0.555,1.223-2.11,2.656-6.427h-3.463c-2.03,5.346-6.199,8.733-10.878,8.733
	c-6.692,0-12.138-7.07-12.138-15.762s5.445-15.763,12.138-15.763c4.671,0,8.848,3.392,10.878,8.733h7.517
	c2.511-9.572,4.948-20.149,6.354-26.412c-6.098,2.646-18.206,7.527-24.203,7.262c-5.533-0.23-10.376-7.48-15.502-15.156
	c-3.158-4.728-6.424-9.617-9.47-12.114c-7.086-5.812-17.188-6.373-18.047-6.411c-0.839,0.038-10.986,0.618-18.05,6.411
	c-3.046,2.497-6.312,7.387-9.47,12.115c-5.126,7.675-9.968,14.925-15.501,15.155c-6.029,0.28-18.105-4.614-24.203-7.262
	c1.405,6.259,3.841,16.827,6.354,26.412h7.517c2.031-5.343,6.207-8.733,10.878-8.733c6.692,0,12.137,7.071,12.137,15.763
	s-5.445,15.762-12.137,15.762c-4.679,0-8.848-3.388-10.878-8.733H51.625z M150.915,167.919c-4.487,0-8.138,5.276-8.138,11.763
	c0,6.485,3.65,11.762,8.138,11.762c2.585,0,4.982-1.796,6.506-4.733h-3.422c-3.848,0-6.979-3.131-6.979-6.979v-0.101
	c0-3.848,3.131-6.979,6.979-6.979h3.421C155.896,169.716,153.494,167.919,150.915,167.919z M59.461,186.71
	c1.523,2.938,3.921,4.733,6.506,4.733c4.487,0,8.137-5.276,8.137-11.762c0-6.486-3.65-11.763-8.137-11.763
	c-2.58,0-4.98,1.797-6.505,4.733h3.421c3.848,0,6.979,3.131,6.979,6.979v0.101c0,3.848-3.13,6.979-6.979,6.979H59.461z
	 M151.021,179.731c0,1.643,1.336,2.979,2.979,2.979h42.005c5.719,0,10.372-4.653,10.372-10.372V95.79c0-1.45-1.18-2.63-2.629-2.63
	h-5.429c-1.449,0-2.629,1.18-2.629,2.63v71.918c0,4.932-4.013,8.944-8.945,8.944h-32.745c-1.643,0-2.979,1.336-2.979,2.979V179.731z
	 M13.135,93.16c-1.45,0-2.629,1.18-2.629,2.63v76.548c0,5.719,4.653,10.372,10.373,10.372h42.005c1.643,0,2.979-1.336,2.979-2.979
	v-0.101c0-1.643-1.336-2.979-2.979-2.979H30.138c-4.932,0-8.945-4.013-8.945-8.944V95.79c0-1.45-1.18-2.63-2.629-2.63H13.135z
	 M110.441,115.967c3.743,0.4,12.113,1.864,18.585,7.171c3.505,2.875,6.938,8.016,10.259,12.986
	c4.144,6.204,8.84,13.235,12.342,13.382c5.608,0.229,19.243-5.436,25.112-8.118c0.093-0.426,0.145-0.662,0.148-0.682
	c0.012-0.056,0.026-0.111,0.043-0.166l5.662-18.438c0.027-0.099,3.95-14.261,2.79-33.054c-1.093-17.702-6.602-21.627-6.657-21.664
	c-0.474-0.285-0.764-0.725-0.88-1.266c-0.033-0.154-3.362-15.546-6.397-24.183c-2.567-7.307-8.396-18.504-15.717-25.928
	l12.217,40.977c0.075,0.254,0.1,0.521,0.071,0.784l-0.922,8.596c7.411,4.542,10.98,12.277,10.631,23.104
	c-0.439,13.636-4.165,20.101-12.08,20.961c-6.454,0.685-25.414-7.427-36.84-15.82c-1.817-1.335-3.373-2.471-4.712-3.448
	c-7.374-5.381-8.508-6.208-10.202-9.136l0,0c-0.699-1.208-1.053-2.716-1.05-4.48c0.005-3.528,2.322-6.655,5.766-7.779
	c9.568-3.121,25.974-7.865,35.969-7.405l0.914-6.814L142.107,8.038C128.811,4.428,108.629,4.004,108.403,4
	c-0.157,0.004-20.336,0.431-33.628,4.039L61.389,55.545l0.915,6.814c9.972-0.463,26.4,4.284,35.968,7.405
	c3.444,1.124,5.761,4.251,5.767,7.779c0.003,1.765-0.35,3.272-1.049,4.48l0,0c-1.695,2.928-2.829,3.755-10.202,9.136
	c-1.339,0.978-2.896,2.113-4.712,3.447c-11.426,8.395-30.364,16.51-36.841,15.821c-7.914-0.86-11.64-7.325-12.08-20.961
	c-0.349-10.827,3.219-18.562,10.63-23.104l-0.922-8.596c-0.028-0.264-0.003-0.53,0.072-0.784l12.217-40.978
	c-7.321,7.424-13.15,18.622-15.718,25.929c-3.035,8.637-6.364,24.028-6.397,24.183c-0.116,0.541-0.452,1.009-0.926,1.294
	c-0.01,0.009-5.519,3.934-6.611,21.636c-1.16,18.793,2.762,32.955,2.802,33.097l5.65,18.396c0.017,0.055,0.031,0.11,0.043,0.166
	c0.004,0.02,0.055,0.256,0.148,0.682c5.87,2.683,19.562,8.359,25.112,8.118c3.502-0.146,8.199-7.178,12.342-13.381
	c3.32-4.972,6.754-10.112,10.26-12.987c6.471-5.307,14.841-6.771,18.585-7.171V84.136c0-1.104,0.896-2,2-2s2,0.896,2,2V115.967z
	 M117.355,80.021c1.243,2.147,1.824,2.601,9.099,7.909c1.343,0.979,2.901,2.117,4.723,3.455
	c12.07,8.867,29.496,15.589,34.039,15.067c4.15-0.451,8.055-2.837,8.515-17.113c0.316-9.795-2.729-16.313-9.49-20.032
	c-0.147-0.058-0.287-0.133-0.415-0.223c-1.948-1.017-4.193-1.812-6.741-2.396c-5.938-1.357-19.855,1.211-37.232,6.879
	c-1.796,0.586-3.004,2.187-3.007,3.982C116.843,78.586,117.02,79.439,117.355,80.021L117.355,80.021z M52.642,69.307
	c-6.761,3.719-9.806,10.236-9.49,20.032c0.46,14.277,4.364,16.662,8.514,17.113c4.54,0.502,21.969-6.201,34.04-15.068
	c1.821-1.337,3.38-2.476,4.723-3.455c7.274-5.308,7.855-5.762,9.098-7.908c0.336-0.581,0.513-1.435,0.511-2.471
	c-0.002-1.796-1.211-3.396-3.007-3.982c-17.378-5.669-31.297-8.235-37.232-6.879c-2.548,0.584-4.793,1.379-6.742,2.396
	C52.929,69.174,52.79,69.249,52.642,69.307z M201.033,66.804c-1.143,0-2.071,0.929-2.071,2.071c0,1.142,0.929,2.07,2.071,2.07
	c1.142,0,2.07-0.929,2.07-2.07C203.104,67.732,202.175,66.804,201.033,66.804z M15.849,66.804c-1.142,0-2.071,0.929-2.071,2.071
	c0,1.142,0.929,2.07,2.071,2.07c1.142,0,2.071-0.929,2.071-2.07C17.92,67.732,16.991,66.804,15.849,66.804z M52.882,57.742
	l0.719,6.702c1.469-0.6,3.051-1.107,4.742-1.521l-0.974-7.257c-0.036-0.271-0.017-0.545,0.058-0.808L70.197,9.536
	c-1.184,0.485-2.35,1.11-3.495,1.854L52.882,57.742z M158.539,62.923c1.69,0.414,3.272,0.921,4.742,1.521L164,57.742L150.181,11.39
	c-1.145-0.742-2.313-1.368-3.495-1.854l12.77,45.322c0.074,0.263,0.094,0.537,0.058,0.808L158.539,62.923z M108.441,186.79
	c-12.305,0-22.315-10.011-22.315-22.315s10.011-22.314,22.315-22.314s22.314,10.01,22.314,22.314S120.746,186.79,108.441,186.79z
	 M108.441,146.16c-10.099,0-18.315,8.216-18.315,18.314c0,10.1,8.216,18.315,18.315,18.315c10.099,0,18.314-8.216,18.314-18.315
	C126.756,154.376,118.54,146.16,108.441,146.16z M108.441,178.67c-7.827,0-14.195-6.368-14.195-14.195s6.368-14.194,14.195-14.194
	s14.194,6.367,14.194,14.194S116.269,178.67,108.441,178.67z M108.441,154.28c-5.622,0-10.195,4.573-10.195,10.194
	c0,5.622,4.574,10.195,10.195,10.195c5.621,0,10.194-4.573,10.194-10.195C118.636,158.854,114.063,154.28,108.441,154.28z"/>
<g>
</g>
<g>
</g>
<g>
</g>
<g>
</g>
<g>
</g>
<g>
</g>
<g>
</g>
<g>
</g>
<g>
</g>
<g>
</g>
<g>
</g>
<g>
</g>
<g>
</g>
<g>
</g>
<g>
</g>
</svg>
